<?xml version="1.0" encoding="UTF-8" standalone="no"?>
<!DOCTYPE svg PUBLIC "-//W3C//DTD SVG 1.1//EN"
 "http://www.w3.org/Graphics/SVG/1.1/DTD/svg11.dtd">
<!-- Generated by graphviz version 2.40.1 (20161225.0304)
 -->
<!-- Title: dependencies Pages: 1 -->
<svg width="1772pt" height="284pt"
 viewBox="0.00 0.00 1772.00 284.00" xmlns="http://www.w3.org/2000/svg" xmlns:xlink="http://www.w3.org/1999/xlink">
<g id="graph0" class="graph" transform="scale(1 1) rotate(0) translate(4 280)">
<title>dependencies</title>
<polygon fill="#ffffff" stroke="transparent" points="-4,4 -4,-280 1768,-280 1768,4 -4,4"/>
<text text-anchor="start" x="861.0091" y="-42.4" font-family="sans-serif" font-weight="bold" font-size="14.00" fill="#000000">Legend</text>
<polygon fill="#ffffb3" stroke="transparent" points="648,-10 648,-30 668,-30 668,-10 648,-10"/>
<text text-anchor="start" x="671.629" y="-15.4" font-family="sans-serif" font-size="14.00" fill="#000000"> &#160;Declarations</text>
<polygon fill="#8dd3c7" stroke="transparent" points="761,-10 761,-30 781,-30 781,-10 761,-10"/>
<text text-anchor="start" x="784.7251" y="-15.4" font-family="sans-serif" font-size="14.00" fill="#000000"> &#160;Module</text>
<polygon fill="#80b1d3" stroke="transparent" points="847,-10 847,-30 867,-30 867,-10 847,-10"/>
<text text-anchor="start" x="870.7812" y="-15.4" font-family="sans-serif" font-size="14.00" fill="#000000"> &#160;Bootstrap</text>
<polygon fill="#fdb462" stroke="transparent" points="944,-10 944,-30 964,-30 964,-10 944,-10"/>
<text text-anchor="start" x="967.6732" y="-15.4" font-family="sans-serif" font-size="14.00" fill="#000000"> &#160;Providers</text>
<polygon fill="#fb8072" stroke="transparent" points="1040,-10 1040,-30 1060,-30 1060,-10 1040,-10"/>
<text text-anchor="start" x="1063.7258" y="-15.4" font-family="sans-serif" font-size="14.00" fill="#000000"> &#160;Exports</text>
<g id="clust1" class="cluster">
<title>cluster_AppModule</title>
<polygon fill="none" stroke="#000000" stroke-dasharray="1,5" points="8,-70 8,-268 1756,-268 1756,-70 8,-70"/>
</g>
<g id="clust2" class="cluster">
<title>cluster_AppModule_declarations</title>
<polygon fill="none" stroke="#000000" points="172,-78 172,-130 1748,-130 1748,-78 172,-78"/>
</g>
<g id="clust15" class="cluster">
<title>cluster_AppModule_bootstrap</title>
<polygon fill="none" stroke="#000000" points="845,-208 845,-260 969,-260 969,-208 845,-208"/>
</g>
<g id="clust16" class="cluster">
<title>cluster_AppModule_providers</title>
<polygon fill="none" stroke="#000000" points="16,-78 16,-130 164,-130 164,-78 16,-78"/>
</g>
<!-- AppComponent -->
<g id="node1" class="node">
<title>AppComponent</title>
<polygon fill="#ffffb3" stroke="#000000" points="1739.9399,-122 1634.0601,-122 1634.0601,-86 1739.9399,-86 1739.9399,-122"/>
<text text-anchor="middle" x="1687" y="-99.8" font-family="Times,serif" font-size="14.00" fill="#000000">AppComponent</text>
</g>
<!-- AppModule -->
<g id="node11" class="node">
<title>AppModule</title>
<polygon fill="#8dd3c7" stroke="#000000" points="948.6571,-187 945.6571,-191 924.6571,-191 921.6571,-187 865.3429,-187 865.3429,-151 948.6571,-151 948.6571,-187"/>
<text text-anchor="middle" x="907" y="-164.8" font-family="Times,serif" font-size="14.00" fill="#000000">AppModule</text>
</g>
<!-- AppComponent&#45;&gt;AppModule -->
<g id="edge1" class="edge">
<title>AppComponent&#45;&gt;AppModule</title>
<path fill="none" stroke="#000000" d="M1687,-122.2479C1687,-145.0179 1687,-181 1687,-181 1687,-181 958.6604,-181 958.6604,-181"/>
<polygon fill="#000000" stroke="#000000" points="958.6605,-177.5001 948.6604,-181 958.6604,-184.5001 958.6605,-177.5001"/>
</g>
<!-- AboutComponent -->
<g id="node2" class="node">
<title>AboutComponent</title>
<polygon fill="#ffffb3" stroke="#000000" points="1616.3301,-122 1499.6699,-122 1499.6699,-86 1616.3301,-86 1616.3301,-122"/>
<text text-anchor="middle" x="1558" y="-99.8" font-family="Times,serif" font-size="14.00" fill="#000000">AboutComponent</text>
</g>
<!-- AboutComponent&#45;&gt;AppModule -->
<g id="edge2" class="edge">
<title>AboutComponent&#45;&gt;AppModule</title>
<path fill="none" stroke="#000000" d="M1558,-122.2843C1558,-143.3211 1558,-175 1558,-175 1558,-175 958.7133,-175 958.7133,-175"/>
<polygon fill="#000000" stroke="#000000" points="958.7133,-171.5001 948.7133,-175 958.7133,-178.5001 958.7133,-171.5001"/>
</g>
<!-- BrowseByHandComponent -->
<g id="node3" class="node">
<title>BrowseByHandComponent</title>
<polygon fill="#ffffb3" stroke="#000000" points="1481.2534,-122 1310.7466,-122 1310.7466,-86 1481.2534,-86 1481.2534,-122"/>
<text text-anchor="middle" x="1396" y="-99.8" font-family="Times,serif" font-size="14.00" fill="#000000">BrowseByHandComponent</text>
</g>
<!-- BrowseByHandComponent&#45;&gt;AppModule -->
<g id="edge3" class="edge">
<title>BrowseByHandComponent&#45;&gt;AppModule</title>
<path fill="none" stroke="#000000" d="M1396,-122.1061C1396,-141.3391 1396,-169 1396,-169 1396,-169 958.6919,-169 958.6919,-169"/>
<polygon fill="#000000" stroke="#000000" points="958.6919,-165.5001 948.6919,-169 958.6918,-172.5001 958.6919,-165.5001"/>
</g>
<!-- BrowseByDateComponent -->
<g id="node4" class="node">
<title>BrowseByDateComponent</title>
<polygon fill="#ffffb3" stroke="#000000" points="1292.3585,-122 1125.6415,-122 1125.6415,-86 1292.3585,-86 1292.3585,-122"/>
<text text-anchor="middle" x="1209" y="-99.8" font-family="Times,serif" font-size="14.00" fill="#000000">BrowseByDateComponent</text>
</g>
<!-- BrowseByDateComponent&#45;&gt;AppModule -->
<g id="edge4" class="edge">
<title>BrowseByDateComponent&#45;&gt;AppModule</title>
<path fill="none" stroke="#000000" d="M1209,-122.0225C1209,-139.3734 1209,-163 1209,-163 1209,-163 958.6747,-163 958.6747,-163"/>
<polygon fill="#000000" stroke="#000000" points="958.6748,-159.5001 948.6747,-163 958.6747,-166.5001 958.6748,-159.5001"/>
</g>
<!-- NavBarComponent -->
<g id="node5" class="node">
<title>NavBarComponent</title>
<polygon fill="#ffffb3" stroke="#000000" points="1107.3655,-122 982.6345,-122 982.6345,-86 1107.3655,-86 1107.3655,-122"/>
<text text-anchor="middle" x="1045" y="-99.8" font-family="Times,serif" font-size="14.00" fill="#000000">NavBarComponent</text>
</g>
<!-- NavBarComponent&#45;&gt;AppModule -->
<g id="edge5" class="edge">
<title>NavBarComponent&#45;&gt;AppModule</title>
<path fill="none" stroke="#000000" d="M1045,-122.2396C1045,-137.5706 1045,-157 1045,-157 1045,-157 958.779,-157 958.779,-157"/>
<polygon fill="#000000" stroke="#000000" points="958.7791,-153.5001 948.779,-157 958.779,-160.5001 958.7791,-153.5001"/>
</g>
<!-- HomeComponent -->
<g id="node6" class="node">
<title>HomeComponent</title>
<polygon fill="#ffffb3" stroke="#000000" points="964.5451,-122 849.4549,-122 849.4549,-86 964.5451,-86 964.5451,-122"/>
<text text-anchor="middle" x="907" y="-99.8" font-family="Times,serif" font-size="14.00" fill="#000000">HomeComponent</text>
</g>
<!-- HomeComponent&#45;&gt;AppModule -->
<g id="edge6" class="edge">
<title>HomeComponent&#45;&gt;AppModule</title>
<path fill="none" stroke="#000000" d="M907,-122.1061C907,-122.1061 907,-140.991 907,-140.991"/>
<polygon fill="#000000" stroke="#000000" points="903.5001,-140.9909 907,-150.991 910.5001,-140.991 903.5001,-140.9909"/>
</g>
<!-- PageViewComponent -->
<g id="node7" class="node">
<title>PageViewComponent</title>
<polygon fill="#ffffb3" stroke="#000000" points="831.3627,-122 692.6373,-122 692.6373,-86 831.3627,-86 831.3627,-122"/>
<text text-anchor="middle" x="762" y="-99.8" font-family="Times,serif" font-size="14.00" fill="#000000">PageViewComponent</text>
</g>
<!-- PageViewComponent&#45;&gt;AppModule -->
<g id="edge7" class="edge">
<title>PageViewComponent&#45;&gt;AppModule</title>
<path fill="none" stroke="#000000" d="M762,-122.2396C762,-137.5706 762,-157 762,-157 762,-157 855.06,-157 855.06,-157"/>
<polygon fill="#000000" stroke="#000000" points="855.06,-160.5001 865.06,-157 855.06,-153.5001 855.06,-160.5001"/>
</g>
<!-- VolumeLinksComponent -->
<g id="node8" class="node">
<title>VolumeLinksComponent</title>
<polygon fill="#ffffb3" stroke="#000000" points="674.3229,-122 515.6771,-122 515.6771,-86 674.3229,-86 674.3229,-122"/>
<text text-anchor="middle" x="595" y="-99.8" font-family="Times,serif" font-size="14.00" fill="#000000">VolumeLinksComponent</text>
</g>
<!-- VolumeLinksComponent&#45;&gt;AppModule -->
<g id="edge8" class="edge">
<title>VolumeLinksComponent&#45;&gt;AppModule</title>
<path fill="none" stroke="#000000" d="M595,-122.0225C595,-139.3734 595,-163 595,-163 595,-163 855.246,-163 855.246,-163"/>
<polygon fill="#000000" stroke="#000000" points="855.2461,-166.5001 865.246,-163 855.246,-159.5001 855.2461,-166.5001"/>
</g>
<!-- SearchResultsComponent -->
<g id="node9" class="node">
<title>SearchResultsComponent</title>
<polygon fill="#ffffb3" stroke="#000000" points="498.1414,-122 337.8586,-122 337.8586,-86 498.1414,-86 498.1414,-122"/>
<text text-anchor="middle" x="418" y="-99.8" font-family="Times,serif" font-size="14.00" fill="#000000">SearchResultsComponent</text>
</g>
<!-- SearchResultsComponent&#45;&gt;AppModule -->
<g id="edge9" class="edge">
<title>SearchResultsComponent&#45;&gt;AppModule</title>
<path fill="none" stroke="#000000" d="M418,-122.1061C418,-141.3391 418,-169 418,-169 418,-169 855.3081,-169 855.3081,-169"/>
<polygon fill="#000000" stroke="#000000" points="855.3082,-172.5001 865.3081,-169 855.3081,-165.5001 855.3082,-172.5001"/>
</g>
<!-- SearchBarComponent -->
<g id="node10" class="node">
<title>SearchBarComponent</title>
<polygon fill="#ffffb3" stroke="#000000" points="319.6317,-122 180.3683,-122 180.3683,-86 319.6317,-86 319.6317,-122"/>
<text text-anchor="middle" x="250" y="-99.8" font-family="Times,serif" font-size="14.00" fill="#000000">SearchBarComponent</text>
</g>
<!-- SearchBarComponent&#45;&gt;AppModule -->
<g id="edge10" class="edge">
<title>SearchBarComponent&#45;&gt;AppModule</title>
<path fill="none" stroke="#000000" d="M250,-122.2843C250,-143.3211 250,-175 250,-175 250,-175 855.1531,-175 855.1531,-175"/>
<polygon fill="#000000" stroke="#000000" points="855.1531,-178.5001 865.1531,-175 855.1531,-171.5001 855.1531,-178.5001"/>
</g>
<!-- AppComponent  -->
<g id="node12" class="node">
<title>AppComponent </title>
<polygon fill="#80b1d3" stroke="#000000" points="961.439,-252 852.561,-252 852.561,-216 961.439,-216 961.439,-252"/>
<text text-anchor="middle" x="907" y="-229.8" font-family="Times,serif" font-size="14.00" fill="#000000">AppComponent </text>
</g>
<!-- AppModule&#45;&gt;AppComponent  -->
<g id="edge11" class="edge">
<title>AppModule&#45;&gt;AppComponent </title>
<path fill="none" stroke="#000000" stroke-dasharray="1,5" d="M907,-187.1061C907,-187.1061 907,-205.991 907,-205.991"/>
<polygon fill="#000000" stroke="#000000" points="903.5001,-205.9909 907,-215.991 910.5001,-205.991 903.5001,-205.9909"/>
</g>
<!-- SearchService -->
<g id="node13" class="node">
<title>SearchService</title>
<ellipse fill="#fdb462" stroke="#000000" cx="90" cy="-104" rx="66.0281" ry="18"/>
<text text-anchor="middle" x="90" y="-99.8" font-family="Times,serif" font-size="14.00" fill="#000000">SearchService</text>
</g>
<!-- SearchService&#45;&gt;AppModule -->
<g id="edge12" class="edge">
<title>SearchService&#45;&gt;AppModule</title>
<path fill="none" stroke="#000000" d="M90,-122.2479C90,-145.0179 90,-181 90,-181 90,-181 855.0787,-181 855.0787,-181"/>
<polygon fill="#000000" stroke="#000000" points="855.0787,-184.5001 865.0787,-181 855.0787,-177.5001 855.0787,-184.5001"/>
</g>
</g>
</svg>
